/* XPM */
static char *_94f3509e7bd49b5e373e9ce46c63f56doxMQCCHLHpalQ0A[] = {
/* columns rows colors chars-per-pixel */
"32 32 150 2 ",
"   c None",
".  c #D83636",
"X  c #D93636",
"o  c #DA3636",
"O  c #DB3737",
"+  c #DE3434",
"@  c #DC3636",
"#  c #DF3636",
"$  c #DE3737",
"%  c #DF3737",
"&  c #DB3838",
"*  c #DC3838",
"=  c #DD3838",
"-  c #DE3939",
";  c #DF3939",
":  c #DF3B3B",
">  c #E03636",
",  c #E03737",
"<  c #E03838",
"1  c #E13838",
"2  c #E03939",
"3  c #E13939",
"4  c #E23939",
"5  c #E13A3A",
"6  c #E13B3B",
"7  c #E23A3A",
"8  c #E33A3A",
"9  c #E43A3A",
"0  c #E53A3A",
"q  c #E63B3B",
"w  c #E73B3B",
"e  c #E23F3F",
"r  c #E73D3D",
"t  c #E83A3A",
"y  c #E83B3B",
"u  c #E93B3B",
"i  c #E93C3C",
"p  c #EA3C3C",
"a  c #EB3C3C",
"s  c #EC3C3C",
"d  c #ED3C3C",
"f  c #ED3D3D",
"g  c #EE3D3D",
"h  c #EF3D3D",
"j  c #F03D3D",
"k  c #F13E3E",
"l  c #F33E3E",
"z  c #F43E3E",
"x  c #FD3C3C",
"c  c #FD3F3F",
"v  c #FF3E3E",
"b  c #FF3F3F",
"n  c #DF4343",
"m  c #DB4E4E",
"M  c #DC4E4E",
"N  c #DD4E4E",
"B  c #DE4E4E",
"V  c #DE4F4F",
"C  c #DF4F4F",
"Z  c #E24545",
"A  c #E14646",
"S  c #E24646",
"D  c #ED4646",
"F  c #E34B4B",
"G  c #FB4040",
"H  c #FB4242",
"J  c #FC4040",
"K  c #FD4141",
"L  c #FF4040",
"P  c #FE4141",
"I  c #FF4141",
"U  c #FF4242",
"Y  c #FF4646",
"T  c #FF4C4C",
"R  c #FF4D4D",
"E  c #FE4E4E",
"W  c #FF4E4E",
"Q  c #FF4F4F",
"!  c #E25353",
"~  c #EC5151",
"^  c #FF5353",
"/  c #FF5757",
"(  c #FF5B5B",
")  c #E66262",
"_  c #E66767",
"`  c #FF6868",
"'  c #FF6E6E",
"]  c #E77474",
"[  c #F67878",
"{  c #EC8383",
"}  c #EB8585",
"|  c #EA8B8B",
" . c #EB8B8B",
".. c #EC8A8A",
"X. c #EB8C8C",
"o. c #EE8F8F",
"O. c #F98787",
"+. c #FF8989",
"@. c #FF8A8A",
"#. c #F98D8D",
"$. c #FD9191",
"%. c #FF9292",
"&. c #FF9393",
"*. c #FE9494",
"=. c #FF9999",
"-. c #F0A3A3",
";. c #F3A4A4",
":. c #F1A7A7",
">. c #FFA3A3",
",. c #FFA8A8",
"<. c #FFA9A9",
"1. c #FCAAAA",
"2. c #FFADAD",
"3. c #EFB3B3",
"4. c #F1B1B1",
"5. c #F2B2B2",
"6. c #F0B4B4",
"7. c #F1B5B5",
"8. c #F2B4B4",
"9. c #F3B4B4",
"0. c #F2B5B5",
"q. c #F3B5B5",
"w. c #F7B6B6",
"e. c #FFB1B1",
"r. c #FFB4B4",
"t. c #F2BABA",
"y. c #F3BBBB",
"u. c #F2BFBF",
"i. c #F1C2C2",
"p. c #F4C0C0",
"a. c #F5C3C3",
"s. c #FFC2C2",
"d. c #FFC5C5",
"f. c #F7D9D9",
"g. c #F7DEDE",
"h. c #F8D8D8",
"j. c #F9DADA",
"k. c #FFD9D9",
"l. c #FEDADA",
"z. c #F9DEDE",
"x. c #F9E4E4",
"c. c #FAE5E5",
"v. c #FAE6E6",
"b. c #FEE6E6",
"n. c #FFE7E7",
"m. c #FFF1F1",
"M. c #FFF2F2",
"N. c #FFF5F5",
"B. c #FFFDFD",
"V. c white",
/* pixels */
"                        I I I I I I I I                         ",
"                  I I I I I I I I I I I I I I                   ",
"              I I I I I I I I I I I I I I I I I I               ",
"            I I I I I I I I b I I b b I I I I I I I             ",
"          I I I I I I I b W +.r.e.+.W b I I I I I I I           ",
"        I I I I I I I b ^ s.V.V.V.V.s.^ I I I I I I I I         ",
"      I I I I I I I I I >.V.V.V.V.V.V.>.I I I I I I I I I       ",
"    I I I I I I I I b W k.V.V.V.V.V.V.k.W b I I I I I I I I     ",
"    I I I I I I I I I T =.e.m.V.V.V.V.c.~ I I I I I I I I I     ",
"  I I I I I I I I I b T *.,.m.V.V.V.V.c.m 9 G I I I I I I I I   ",
"  I I I I I I I I I I T %.,.m.V.V.V.V.c.m O a I I I I I I I I   ",
"  I I I I I I I I I I W 2.d.N.V.V.V.V.c.m . & a I I I I I I I   ",
"I I I I I I I I I I b / n.V.V.V.V.V.V.c.m O O - a G I I I I I I ",
"I I I I I I I I I I I / n.V.V.V.V.V.V.c.C O O @ - h I I I I I I ",
"I I I I I I I I I I b / n.V.V.V.V.V.V.c.C O - 2 2 2 h I I I I I ",
"I I I I I I I I I I b / n.V.V.V.V.V.V.c.C @ - 2 2 2 9 h I I I I ",
"I I I I I I I I I I ( $.n.V.V.V.V.V.V.c.X.! - 2 2 9 9 t k I I I ",
"I I I I I I I I I b ' 9.x.V.V.V.V.V.V.c.9._ @ 2 9 9 9 9 a k I I ",
"I I I I I I I I I b ' 3.x.V.V.V.V.V.V.c.9._ > 9 9 9 r r t h k I ",
"I I I I I I I I I b ` 3.g.V.V.V.V.V.V.z.q.) > 2 9 9 t t a t h k ",
"  I I I I I I I I b ^ q.i.V.V.V.V.V.V.a.9.F 2 9 9 9 9 r a a h   ",
"  I I I I I I I I I I *.3.h.V.V.V.V.j.9.o.2 9 9 9 a t a a a h   ",
"  I I I I I I I I I b W 1.3.u.h.f.u.9.:.Z 2 9 9 r t t a t h h   ",
"    I I I I I I I I I b T #.3.t.y.5...Z 2 9 9 9 r t a a h h     ",
"    I I I I I I I I I I I I D ....Z 2 > 2 9 9 a t t a a h h     ",
"      I I I I I I I I I I I b [ ] + 2 2 9 9 9 9 a a t h h       ",
"        I I I I I I I I I I W +.} Z > 9 9 9 r t t a a h         ",
"          I I I I I I I I Y O.;.-.{ Z 2 9 r 9 a a a h           ",
"            I I I I I I I I G r - 2 2 r 9 9 t t a h             ",
"              I I I I I I I I G a - 9 2 r t a a h               ",
"                  I I I I I I I G a 9 9 9 a a                   ",
"                        I I I I I G a a                         "
};
